# xmcd
#
# Track frame offsets:
# 150
# 15059
# 29137
# 45010
# 58814
# 72718
# 89576
# 100845
# 117210
# 133588
# 147151
#
# Disc length: 2167 seconds
#
#
# Revision: 0
# Processed by: cddbd v1.5PL3 Copyright (c) Steve Scherf et al.
# Submitted via: FreeRIP 2.53 
#
DISCID=9408750b
DTITLE=Wills, Mark - Mark Wills
DYEAR=1900
DGENRE=
TTITLE0=High Low And In Between
TTITLE1=Jacob's Ladder
TTITLE2=What's Not To Love
TTITLE3=Any Fool Can Say Goodbye
TTITLE4=Ace Of Hearts
TTITLE5=Leavin Comin On
TTITLE6=Sudden Stop
TTITLE7=Places I've Never Been
TTITLE8=Squeeze Box
TTITLE9=What Love Is
TTITLE10=Look Where She Is Today
EXTD=
EXTT0=
EXTT1=
EXTT2=
EXTT3=
EXTT4=
EXTT5=
EXTT6=
EXTT7=
EXTT8=
EXTT9=
EXTT10=
PLAYORDER=
